# xmcd
#
# Track frame offsets:
# 150
# 14321
# 27802
# 40794
# 59543
# 72587
# 86845
# 101629
# 114933
# 131051
# 142906
# 159085
# 175785
# 189439
# 201960
# 214734
# 225259
# 240768
# 252473
# 271244
#
# Disc length: 3768 seconds
#
#
# Revision: 0
# Processed by: cddbd v1.5.2PL0 Copyright (c) Steve Scherf et al.
# Submitted via: FreeRIP 2.951 
#
DISCID=090eb614
DTITLE=Radio Formula - Epoca de oro del Dazon
DYEAR=1900
DGENRE=Danzon
TTITLE0=Acerina - Almendra
TTITLE1=Mariano mercerón - La margarita
TTITLE2=Hamboa ceballos - Kid Azteca
TTITLE3=Carlos campos - Zacatlan
TTITLE4=Diosa del sur - Salon Mexico
TTITLE5=Acerina - Nereidas
TTITLE6=Mariano Merceron - Florecita
TTITLE7=Gamboa ceballos - Pulque para dos
TTITLE8=Carlos campos - elodia
TTITLE9=Emilio B. rosado - blanca estela
TTITLE10=Acerina - Rigoletito
TTITLE11=Mariano merceron - Cuando canta el cornetin
TTITLE12=Gamboa ceballos - telefono larga distancia
TTITLE13=Carlos campos - por el lado soleado de la calle
TTITLE14=Diosa del sur - mocambo
TTITLE15=Acerina - Juarez
TTITLE16=Mariano merceron -  Mi amigo pancho
TTITLE17=Gamboa ceballos - Mi merida
TTITLE18=Mariano merceron - amor perdido
TTITLE19=alejandro cardona - saldivar campeon
EXTD=
EXTT0=
EXTT1=
EXTT2=
EXTT3=
EXTT4=
EXTT5=
EXTT6=
EXTT7=
EXTT8=
EXTT9=
EXTT10=
EXTT11=
EXTT12=
EXTT13=
EXTT14=
EXTT15=
EXTT16=
EXTT17=
EXTT18=
EXTT19=
PLAYORDER=
